<svg xmlns="http://www.w3.org/2000/svg" width="20" height="21" fill="none"><g fill="#000" clip-path="url(#a)"><path d="M10 2.453c2.672 0 2.988.012 4.04.059.976.043 1.503.207 1.855.343.464.18.8.399 1.148.747.352.351.566.683.746 1.148.137.352.3.883.344 1.855.047 1.055.058 1.372.058 4.04 0 2.671-.011 2.988-.058 4.039-.043.976-.207 1.504-.344 1.855-.18.465-.398.8-.746 1.148a3.076 3.076 0 0 1-1.148.747c-.352.136-.883.3-1.856.343-1.055.047-1.371.059-4.039.059-2.672 0-2.988-.012-4.04-.059-.976-.043-1.503-.207-1.855-.343-.464-.18-.8-.399-1.148-.747a3.076 3.076 0 0 1-.746-1.148c-.137-.352-.3-.883-.344-1.855-.047-1.055-.058-1.371-.058-4.04 0-2.671.011-2.988.058-4.039.043-.976.207-1.503.344-1.855.18-.465.398-.8.746-1.148a3.076 3.076 0 0 1 1.148-.747c.352-.136.883-.3 1.856-.343 1.05-.047 1.367-.059 4.039-.059Zm0-1.8c-2.715 0-3.055.011-4.121.058-1.063.047-1.793.219-2.426.465A4.88 4.88 0 0 0 1.68 2.332a4.9 4.9 0 0 0-1.157 1.77C.277 4.738.105 5.465.06 6.527.012 7.597 0 7.937 0 10.652s.012 3.055.059 4.121c.046 1.063.218 1.793.464 2.426a4.88 4.88 0 0 0 1.157 1.774 4.89 4.89 0 0 0 1.77 1.152c.636.246 1.362.418 2.425.465 1.066.047 1.406.058 4.121.058 2.715 0 3.055-.011 4.121-.058 1.063-.047 1.793-.219 2.426-.465a4.89 4.89 0 0 0 1.77-1.152 4.888 4.888 0 0 0 1.152-1.77c.246-.637.418-1.363.465-2.426.047-1.066.058-1.406.058-4.12 0-2.716-.011-3.055-.058-4.122-.047-1.062-.22-1.793-.465-2.426a4.683 4.683 0 0 0-1.145-1.777 4.888 4.888 0 0 0-1.77-1.152c-.636-.246-1.363-.418-2.425-.465-1.07-.05-1.41-.063-4.125-.063Z"/><path d="M10 5.516a5.138 5.138 0 0 0 0 10.273 5.138 5.138 0 0 0 0-10.273Zm0 8.468a3.333 3.333 0 1 1 .001-6.665A3.333 3.333 0 0 1 10 13.984Zm6.54-8.671a1.2 1.2 0 1 1-2.4-.001 1.2 1.2 0 0 1 2.4 0Z"/></g><defs><clipPath id="a"><path fill="#fff" d="M0 .652h20v20H0z"/></clipPath></defs></svg>