<svg xmlns="http://www.w3.org/2000/svg" width="20" height="21" fill="none"><g clip-path="url(#a)"><path fill="#000" d="M18.52.652H1.477C.66.652 0 1.297 0 2.094v17.113c0 .797.66 1.445 1.477 1.445H18.52c.816 0 1.48-.648 1.48-1.441V2.094c0-.797-.664-1.442-1.48-1.442ZM5.934 17.695h-2.97V8.148h2.97v9.547ZM4.449 6.848a1.72 1.72 0 1 1-.006-3.44 1.72 1.72 0 0 1 .006 3.44Zm12.594 10.847h-2.965v-4.64c0-1.106-.02-2.532-1.543-2.532-1.543 0-1.777 1.207-1.777 2.454v4.718H7.797V8.148h2.844v1.305h.039c.394-.75 1.363-1.543 2.804-1.543 3.004 0 3.559 1.977 3.559 4.547v5.238Z"/></g><defs><clipPath id="a"><path fill="#fff" d="M0 .652h20v20H0z"/></clipPath></defs></svg>