<svg xmlns="http://www.w3.org/2000/svg" width="20" height="21" fill="none"><path fill="#000" d="M19.8 6.652s-.195-1.379-.796-1.984c-.762-.797-1.613-.8-2.004-.848-2.797-.203-6.996-.203-6.996-.203h-.008s-4.2 0-6.996.203c-.39.047-1.242.051-2.004.848-.601.605-.793 1.984-.793 1.984S0 8.273 0 9.891v1.515c0 1.617.2 3.239.2 3.239s.195 1.378.792 1.984c.762.797 1.762.77 2.207.855 1.602.153 6.801.2 6.801.2s4.203-.008 7-.207c.39-.047 1.242-.051 2.004-.848.601-.606.797-1.985.797-1.985S20 13.027 20 11.407V9.891c0-1.618-.2-3.239-.2-3.239ZM7.935 13.246V7.625l5.402 2.82-5.402 2.801Z"/></svg>